<?xml version="1.0" standalone="no"?>
<!DOCTYPE svg PUBLIC "-//W3C//DTD SVG 20010904//EN"
 "http://www.w3.org/TR/2001/REC-SVG-20010904/DTD/svg10.dtd">
<svg version="1.0" xmlns="http://www.w3.org/2000/svg"
 width="1024.000000pt" height="1024.000000pt" viewBox="0 0 1024.000000 1024.000000"
 preserveAspectRatio="xMidYMid meet">
<metadata>
Created by potrace 1.14, written by Peter Selinger 2001-2017
</metadata>
<g transform="translate(0.000000,1024.000000) scale(0.100000,-0.100000)"
fill="#000000" stroke="none">
<path d="M4422 9039 c-623 -34 -1089 -236 -1380 -598 -228 -283 -358 -620
-419 -1087 -15 -118 -17 -389 -20 -3096 l-4 -2968 466 0 465 0 0 2210 0 2210
1000 0 1000 0 0 390 0 390 -1000 0 -1000 0 0 314 c0 426 26 612 116 834 136
339 351 514 722 589 70 14 138 18 347 18 293 0 359 -9 599 -76 76 -22 140 -38
142 -37 1 2 31 179 66 393 l64 390 -56 18 c-153 50 -420 93 -678 107 -195 11
-222 11 -430 -1z"/>
<path d="M6943 8966 l-463 -80 0 -3130 c0 -2012 4 -3185 10 -3281 28 -400 140
-696 344 -901 224 -225 600 -350 1137 -377 l86 -5 65 388 64 387 -85 13 c-47
7 -138 25 -201 41 -275 69 -395 180 -462 430 l-23 84 -5 3255 -5 3255 -462
-79z"/>
</g>
</svg>
